<svg width="24" height="24" viewBox="0 0 24 24" fill="none" xmlns="http://www.w3.org/2000/svg">
<path d="M14.13 11.34C14.2238 10.9696 14.2197 10.5812 14.1183 10.2129C14.0169 9.84452 13.8215 9.50882 13.5513 9.23865C13.2812 8.96849 12.9455 8.77312 12.5771 8.67169C12.2087 8.57026 11.8204 8.56623 11.45 8.66002C10.68 8.85002 10.05 9.48002 9.85997 10.25C9.76619 10.6204 9.77021 11.0088 9.87164 11.3772C9.97307 11.7455 10.1684 12.0812 10.4386 12.3514C10.7088 12.6216 11.0445 12.8169 11.4128 12.9184C11.7812 13.0198 12.1696 13.0238 12.54 12.93C13.32 12.74 13.95 12.11 14.13 11.34Z" stroke="white" stroke-width="1.5" stroke-linecap="round" stroke-linejoin="round"/>
<path d="M18.01 17.19C18.8885 16.3717 19.5888 15.381 20.0671 14.2798C20.5454 13.1786 20.7915 11.9906 20.79 10.79C20.79 9.63568 20.5626 8.49266 20.1209 7.42621C19.6791 6.35976 19.0317 5.39076 18.2154 4.57453C17.3992 3.7583 16.4302 3.11084 15.3637 2.6691C14.2973 2.22736 13.1543 2 12 2C10.8456 2 9.70263 2.22736 8.63617 2.6691C7.56972 3.11084 6.60072 3.7583 5.78449 4.57453C4.96827 5.39076 4.3208 6.35976 3.87906 7.42621C3.43732 8.49266 3.20996 9.63568 3.20996 10.79C3.20996 13.33 4.28996 15.62 6.01996 17.22" stroke="white" stroke-width="1.5" stroke-linecap="round" stroke-linejoin="round"/>
<path d="M7.99977 14.55C7.07977 13.57 6.50977 12.25 6.50977 10.79C6.50977 7.76005 8.96977 5.30005 11.9998 5.30005C15.0298 5.30005 17.4898 7.76005 17.4898 10.79C17.4898 12.25 16.9198 13.56 15.9998 14.55M10.2998 16.66L8.85977 18.45C7.71977 19.88 8.72977 21.99 10.5598 21.99H13.4298C15.2598 21.99 16.2798 19.87 15.1298 18.45L13.6898 16.66C12.8298 15.57 11.1698 15.57 10.2998 16.66Z" stroke="white" stroke-width="1.5" stroke-linecap="round" stroke-linejoin="round"/>
</svg>
