<svg width="24" height="24" viewBox="0 0 24 24" fill="none" xmlns="http://www.w3.org/2000/svg">
<path d="M11.75 10.4574C11.0449 10.4574 10.4573 11.0449 10.4573 11.75C10.4573 12.4551 11.0448 13.0427 11.75 13.0427C12.4552 13.0427 13.0427 12.4552 13.0427 11.75C13.0427 11.0448 12.4551 10.4574 11.75 10.4574ZM11.75 0C5.2875 0 0 5.2875 0 11.75C0 18.2125 5.2875 23.5 11.75 23.5C18.2125 23.5 23.5 18.2125 23.5 11.75C23.5 5.2875 18.2125 0 11.75 0ZM14.3352 14.3352L4.7 18.8L9.16479 9.16505L18.8 4.7L14.3352 14.3352Z" fill="white"/>
</svg>
