<svg width="24" height="24" viewBox="0 0 24 24" fill="none" xmlns="http://www.w3.org/2000/svg">
<path d="M19.0001 9.9V16.8C19.0001 17.6 18.6001 18.3 17.9001 18.6L11.4001 21.7C10.9001 21.9 10.2001 21.9 9.7001 21.7L3.2001 18.6C2.5001 18.3 2.1001 17.6 2.1001 16.8V9.3C2.1001 8.5 2.5001 7.8 3.2001 7.5L9.7001 4.4C10.2001 4.2 10.9001 4.2 11.4001 4.4L14.0001 5.7V6C14.0001 8.2 15.8001 10 18.0001 10C18.4001 10 18.7001 10 19.0001 9.9Z" stroke="white" stroke-width="1.5" stroke-miterlimit="10" stroke-linejoin="round"/>
<path d="M7 10.5V13.5C7 14.6 7.9 15.5 9 15.5C10.1 15.5 11 14.6 11 13.5V10.5M14 10.5V15.4" stroke="white" stroke-width="1.5" stroke-miterlimit="10" stroke-linecap="round"/>
<path d="M22 6C22 7.9 20.7 9.4 19 9.9C18.7 10 18.4 10 18 10C15.8 10 14 8.2 14 6V5.7C14.2 3.7 15.9 2 18 2C20.2 2 22 3.8 22 6Z" stroke="white" stroke-width="1.5" stroke-miterlimit="10"/>
</svg>
